<?xml version="1.0" standalone="no"?>
<!DOCTYPE svg PUBLIC "-//W3C//DTD SVG 20010904//EN"
 "http://www.w3.org/TR/2001/REC-SVG-20010904/DTD/svg10.dtd">
<svg version="1.0" xmlns="http://www.w3.org/2000/svg"
 width="1600.000000pt" height="1600.000000pt" viewBox="0 0 1600.000000 1600.000000"
 preserveAspectRatio="xMidYMid meet">
<metadata>
Created by potrace 1.14, written by Peter Selinger 2001-2017
</metadata>
<g transform="translate(0.000000,1600.000000) scale(0.100000,-0.100000)"
fill="#000000" stroke="none">
<path d="M7749 15973 c-209 -552 -491 -1090 -863 -1646 -196 -294 -332 -477
-426 -577 -102 -108 -151 -171 -185 -238 -35 -69 -30 -108 29 -262 55 -144 63
-193 36 -223 -11 -11 -75 -48 -142 -81 -95 -48 -125 -68 -137 -91 -9 -17 -17
-35 -17 -40 -10 -65 -39 -185 -51 -209 -9 -17 -57 -74 -107 -127 -136 -143
-170 -232 -124 -323 51 -101 238 -229 451 -310 107 -40 137 -49 137 -42 0 3
-18 45 -39 93 -75 168 -88 242 -58 315 22 52 50 69 230 142 99 41 154 73 192
113 38 40 97 170 139 303 42 132 92 230 127 247 13 6 86 25 162 42 158 35 227
67 309 144 69 65 123 148 178 274 110 251 118 264 207 339 127 104 270 175
440 215 407 97 790 -152 817 -531 8 -111 -24 -250 -91 -400 -14 -30 -29 -66
-34 -78 -18 -48 -135 -219 -209 -306 -113 -134 -259 -279 -461 -460 -155 -138
-264 -256 -433 -467 -26 -32 -184 -258 -231 -329 -116 -178 -452 -744 -513
-866 -17 -34 -59 -128 -93 -210 -73 -178 -98 -228 -154 -314 -82 -128 -222
-246 -380 -320 -103 -48 -103 -48 -190 -70 -231 -58 -423 -54 -715 15 -178 42
-476 163 -624 253 -37 23 -72 42 -76 42 -5 0 -10 3 -12 8 -1 4 -30 27 -63 52
-33 24 -65 49 -71 55 -6 5 -49 44 -95 85 -138 123 -311 297 -361 363 -71 95
-174 273 -257 442 -96 198 -132 364 -136 630 -2 141 3 210 30 385 21 142 88
367 159 535 65 153 219 436 315 578 114 170 286 358 436 478 84 67 296 212
380 259 113 63 255 173 255 196 0 7 -148 -8 -210 -21 -14 -3 -41 -8 -60 -11
-55 -8 -238 -52 -315 -76 -374 -113 -590 -184 -752 -248 -84 -32 -171 -68
-195 -78 -24 -11 -87 -38 -140 -61 -93 -39 -246 -109 -443 -201 -49 -23 -139
-64 -200 -92 -283 -129 -405 -197 -647 -359 -235 -157 -640 -458 -633 -469 3
-4 42 -13 87 -20 190 -28 279 -63 352 -138 104 -107 165 -249 192 -452 6 -45
6 -244 -1 -295 -45 -366 -89 -512 -221 -745 -147 -259 -273 -589 -330 -859 -9
-43 -41 -242 -49 -301 -14 -104 -13 -432 1 -550 12 -98 41 -267 58 -335 3 -11
14 -67 26 -125 12 -58 24 -119 28 -137 l7 -32 56 52 c165 154 290 240 471 326
229 109 499 160 663 127 17 -4 55 -11 85 -17 52 -10 76 -17 214 -54 257 -71
599 -253 817 -436 82 -69 319 -298 319 -309 0 -3 12 -18 26 -35 15 -16 94
-120 178 -230 145 -193 317 -385 343 -385 7 0 12 3 11 8 -8 38 47 221 98 323
85 170 199 273 419 379 173 84 360 120 503 98 182 -29 445 -170 605 -325 127
-124 179 -203 290 -443 19 -41 62 -131 95 -200 158 -330 204 -470 268 -810 3
-14 22 -108 44 -210 40 -193 67 -331 76 -390 3 -19 9 -57 14 -85 5 -27 11 -74
14 -103 4 -28 8 -67 10 -85 3 -17 7 -68 11 -112 3 -44 7 -93 9 -110 2 -16 7
-61 10 -100 4 -38 9 -81 11 -95 2 -14 7 -52 10 -85 3 -33 8 -71 10 -85 2 -14
6 -52 10 -85 4 -32 8 -66 10 -75 1 -8 6 -46 10 -84 4 -38 8 -79 10 -90 2 -12
6 -57 10 -101 4 -44 8 -87 10 -95 4 -21 15 -168 20 -270 5 -101 13 -202 22
-285 9 -92 10 -318 1 -403 -8 -73 -68 -326 -108 -457 -51 -166 -104 -260 -204
-361 -124 -125 -267 -172 -403 -135 -46 13 -139 78 -199 141 -87 91 -215 180
-260 180 -11 0 -13 -7 -8 -27 16 -65 63 -135 177 -258 67 -72 148 -199 321
-500 13 -22 74 -125 136 -230 128 -216 216 -376 283 -519 26 -54 47 -100 47
-102 0 -2 11 -27 24 -56 51 -113 65 -147 110 -258 26 -63 50 -124 55 -135 5
-11 16 -36 24 -55 17 -39 145 -344 157 -375 27 -65 70 -230 86 -332 3 -21 8
-45 9 -53 2 -8 4 -21 4 -28 1 -8 13 -11 37 -10 33 3 37 7 51 48 39 120 153
422 174 459 4 9 28 63 53 121 24 58 66 150 91 205 90 192 112 241 160 355 48
113 210 442 281 570 36 66 137 243 154 270 71 114 140 231 140 235 0 3 51 86
114 184 114 179 226 364 226 374 0 3 13 34 29 69 16 35 36 87 45 117 17 57 14
57 -32 13 -59 -55 -262 -179 -342 -209 -106 -40 -288 -52 -386 -27 -130 34
-245 118 -294 213 -45 90 -93 288 -108 448 -12 144 -7 414 13 623 1 19 6 67
10 105 3 39 8 84 10 100 3 28 10 95 20 205 2 25 7 85 10 133 4 49 8 100 11
115 2 15 6 41 9 57 2 17 7 48 10 70 4 22 8 47 10 55 2 8 7 40 10 70 3 30 10
82 15 115 5 33 12 80 15 105 3 25 8 56 10 70 2 14 7 43 10 65 5 43 22 161 30
210 2 17 20 140 40 275 19 135 37 255 39 266 5 24 13 75 22 132 3 20 7 44 9
52 3 8 7 33 10 55 5 32 54 292 70 365 11 52 32 119 71 223 25 64 52 150 60
189 15 70 20 81 56 123 18 21 60 79 188 262 157 225 395 431 605 525 182 81
378 117 510 93 121 -23 270 -115 340 -211 57 -79 112 -221 131 -339 3 -22 8
-43 11 -48 2 -4 53 57 113 135 490 639 730 863 1140 1060 135 65 345 135 460
152 19 3 46 8 60 11 119 25 340 24 520 0 223 -31 461 -152 604 -306 80 -87
128 -186 187 -386 19 -68 22 -71 47 -67 51 9 60 15 65 47 37 204 46 267 52
382 5 77 5 446 0 575 -8 216 -15 337 -19 351 -3 8 -7 30 -10 49 -35 241 -157
680 -239 860 -14 30 -41 96 -61 145 -20 50 -41 99 -46 110 -16 35 -101 276
-125 355 -82 269 -105 386 -105 526 0 169 49 347 128 467 63 97 184 220 249
255 89 47 218 78 360 86 35 2 37 12 7 53 -99 133 -228 263 -399 402 -87 70
-399 282 -518 352 -68 40 -66 38 -177 106 -142 86 -465 253 -640 331 -25 11
-72 32 -105 47 -179 79 -366 151 -641 243 -82 28 -163 56 -180 63 -16 7 -31
13 -34 13 -3 1 -18 7 -35 13 -435 174 -670 250 -860 277 l-40 6 47 -44 c26
-24 84 -63 130 -86 341 -174 511 -301 701 -524 61 -72 114 -133 117 -136 13
-10 184 -226 209 -264 74 -112 124 -208 184 -356 92 -226 118 -371 112 -615
-2 -88 -6 -171 -9 -185 -3 -14 -8 -41 -10 -60 -30 -222 -127 -522 -244 -755
-232 -465 -513 -838 -837 -1111 -93 -79 -282 -212 -350 -247 -112 -57 -210
-103 -275 -128 -41 -16 -84 -34 -95 -39 -52 -24 -240 -81 -311 -94 -230 -41
-479 15 -687 156 -291 198 -482 572 -472 928 3 87 6 120 20 190 3 14 7 34 9
45 23 121 94 305 180 470 80 155 262 449 335 545 32 41 117 154 190 250 72 96
134 180 138 185 111 147 246 377 332 568 53 117 129 377 146 502 7 50 7 250 0
290 -3 17 -10 55 -15 85 -6 30 -15 71 -21 90 -5 19 -12 44 -14 55 -3 11 -19
56 -37 100 -86 214 -235 415 -413 557 -195 155 -467 254 -785 283 -36 3 -83 8
-105 10 -107 12 -340 6 -435 -11 -14 -2 -41 -7 -60 -10 -251 -40 -595 -209
-845 -415 -47 -38 -85 -68 -85 -65 0 3 18 52 41 108 56 140 153 399 199 533
21 61 92 268 158 460 66 193 132 383 146 424 14 41 26 78 26 83 0 4 -18 8 -40
8 -35 0 -42 -4 -51 -27z"/>
</g>
</svg>
